{
    "asset": {
        "version": "2.0",
        "generator": "Open Asset Import Library (assimp v5.0.5eb040c7)"
    },
    "accessors": [
        {
            "bufferView": 0,
            "byteOffset": 0,
            "componentType": 5126,
            "count": 21787,
            "type": "VEC3",
            "max": [
                26.38713264465332,
                14.00943374633789,
                6.286499977111816
            ],
            "min": [
                -26.3037052154541,
                -0.24226300418376923,
                -13.215574264526368
            ]
        },
        {
            "bufferView": 1,
            "byteOffset": 0,
            "componentType": 5126,
            "count": 21787,
            "type": "VEC3",
            "max": [
                0.9998232126235962,
                0.999965488910675,
                0.9998456239700317
            ],
            "min": [
                -0.9999813437461853,
                -0.9999716281890869,
                -0.9992472529411316
            ]
        },
        {
            "bufferView": 2,
            "byteOffset": 0,
            "componentType": 5126,
            "count": 21787,
            "type": "VEC2",
            "max": [
                0.9995530247688294,
                0.9989079833030701
            ],
            "min": [
                0.0008410000009462237,
                0.0008220076560974121
            ]
        },
        {
            "bufferView": 3,
            "byteOffset": 0,
            "componentType": 5125,
            "count": 21789,
            "type": "SCALAR",
            "max": [
                21786
            ],
            "min": [
                0
            ]
        }
    ],
    "buffers": [
        {
            "byteLength": 784340,
            "uri": "result.bin"
        }
    ],
    "bufferViews": [
        {
            "buffer": 0,
            "byteOffset": 0,
            "byteLength": 261444,
            "target": 34962
        },
        {
            "buffer": 0,
            "byteOffset": 261444,
            "byteLength": 261444,
            "target": 34962
        },
        {
            "buffer": 0,
            "byteOffset": 522888,
            "byteLength": 174296,
            "target": 34962
        },
        {
            "buffer": 0,
            "byteOffset": 697184,
            "byteLength": 87156,
            "target": 34963
        }
    ],
    "materials": [
        {
            "name": "DefaultMaterial",
            "pbrMetallicRoughness": {
                "baseColorFactor": [
                    0.6000000238418579,
                    0.6000000238418579,
                    0.6000000238418579,
                    1.0
                ],
                "metallicFactor": 0.0
            }
        }
    ],
    "meshes": [
        {
            "name": "Eagle",
            "primitives": [
                {
                    "mode": 4,
                    "material": 0,
                    "indices": 3,
                    "attributes": {
                        "POSITION": 0,
                        "NORMAL": 1,
                        "TEXCOORD_0": 2
                    }
                }
            ]
        }
    ],
    "nodes": [
        {
            "name": "input.obj",
            "children": [
                1
            ]
        },
        {
            "name": "Eagle",
            "mesh": 0
        }
    ],
    "scenes": [
        {
            "nodes": [
                0
            ]
        }
    ],
    "scene": 0
}